<svg xmlns="http://www.w3.org/2000/svg" viewBox="0 0 640 400">
  <!-- Preview for Admin → Appearance: header with search, post cards, tags sidebar. -->
  <rect width="640" height="400" fill="#f8fafc"/>
  <rect x="0" y="0" width="640" height="48" fill="#ffffff"/>
  <line x1="0" y1="48" x2="640" y2="48" stroke="#e2e8f0" stroke-width="2"/>
  <text x="28" y="31" font-family="-apple-system, 'Segoe UI', Roboto, Arial, sans-serif" font-weight="700" font-size="17" fill="#0f172a">My Blog</text>
  <rect x="112" y="21" width="34" height="7" rx="2" fill="#64748b"/>
  <rect x="156" y="21" width="34" height="7" rx="2" fill="#64748b"/>
  <rect x="482" y="13" width="130" height="22" rx="11" fill="#f8fafc" stroke="#e2e8f0" stroke-width="1.5"/>

  <rect x="28" y="70" width="410" height="300" rx="8" fill="#ffffff" stroke="#e2e8f0" stroke-width="1.5"/>
  <rect x="46" y="88" width="374" height="150" rx="6" fill="#dbe6f7"/>
  <rect x="46" y="252" width="110" height="7" rx="2" fill="#94a3b8"/>
  <rect x="46" y="268" width="300" height="14" rx="3" fill="#0f172a"/>
  <rect x="46" y="292" width="360" height="7" rx="2" fill="#94a3b8"/>
  <rect x="46" y="305" width="320" height="7" rx="2" fill="#94a3b8"/>
  <rect x="46" y="324" width="52" height="16" rx="3" fill="#eff6ff"/>
  <rect x="104" y="324" width="44" height="16" rx="3" fill="#eff6ff"/>
  <rect x="46" y="350" width="80" height="7" rx="2" fill="#2563eb"/>

  <rect x="458" y="70" width="154" height="116" rx="8" fill="#ffffff" stroke="#e2e8f0" stroke-width="1.5"/>
  <rect x="474" y="86" width="40" height="7" rx="2" fill="#64748b"/>
  <rect x="474" y="106" width="50" height="16" rx="3" fill="#eff6ff"/>
  <rect x="530" y="106" width="64" height="16" rx="3" fill="#eff6ff"/>
  <rect x="474" y="128" width="62" height="16" rx="3" fill="#eff6ff"/>
  <rect x="542" y="128" width="40" height="16" rx="3" fill="#eff6ff"/>
  <rect x="474" y="150" width="46" height="16" rx="3" fill="#eff6ff"/>
  <g fill="#1d4ed8">
    <rect x="482" y="112" width="34" height="4" rx="2"/>
    <rect x="538" y="112" width="48" height="4" rx="2"/>
    <rect x="482" y="134" width="46" height="4" rx="2"/>
    <rect x="550" y="134" width="24" height="4" rx="2"/>
    <rect x="482" y="156" width="30" height="4" rx="2"/>
    <rect x="54" y="330" width="36" height="4" rx="2"/>
    <rect x="112" y="330" width="28" height="4" rx="2"/>
  </g>
</svg>
